# xmcd
#
# Track frame offsets:
#	150
#	15662
#	31087
#	46015
#	60097
#	75025
#	87670
#	103455
#	115630
#	132285
#
# Disc length: 1992 seconds
#
# Revision: 2
# Processed by: cddbd v1.5PL3 Copyright (c) Steve Scherf et al.
# Submitted via: MusicManager 7.0.4.0 
#
DISCID=6907c60a
DTITLE=Ricky Van Shelton - Back Roads
DYEAR=1991
DGENRE=
TTITLE0=I Am A Simple Man
TTITLE1=Rockin' Years
TTITLE2=Oh Heart Of Mine
TTITLE3=Some Things Are Better Left Alone
TTITLE4=After The Lights Go Out
TTITLE5=Call Me Up
TTITLE6=If Your Ever In My Arms
TTITLE7=Who'll Turn Out The Lights
TTITLE8=Backroads
TTITLE9=Keep It Between The Lines
EXTD=
EXTT0=
EXTT1=
EXTT2=
EXTT3=
EXTT4=
EXTT5=
EXTT6=
EXTT7=
EXTT8=
EXTT9=
PLAYORDER=
